Coordinates
version=1
nRows=13
nColumns=40
inDegrees=yes

Units are S.I. units (second, meters, Newtons, ...)
Angles are in degrees.

endheader
time	pelvis_tilt	pelvis_list	pelvis_rotation	pelvis_tx	pelvis_ty	pelvis_tz	hip_flexion_r	hip_adduction_r	hip_rotation_r	knee_angle_r	knee_angle_r_beta	ankle_angle_r	subtalar_angle_r	mtp_angle_r	hip_flexion_l	hip_adduction_l	hip_rotation_l	knee_angle_l	knee_angle_l_beta	ankle_angle_l	subtalar_angle_l	mtp_angle_l	lumbar_extension	lumbar_bending	lumbar_rotation	arm_flex_r	arm_add_r	arm_rot_r	elbow_flex_r	pro_sup_r	wrist_flex_r	wrist_dev_r	arm_flex_l	arm_add_l	arm_rot_l	elbow_flex_l	pro_sup_l	wrist_flex_l	wrist_dev_l
     20.81000000	     -7.23686510	     -4.15604763	     -0.13872794	      1.01787944	      0.91543950	      0.43502041	     14.19636638	     -6.60258630	     -6.26107100	     52.45578817	     52.45578817	      1.04001847	    -15.72262160	    -10.83368425	     25.05778300	     -3.01202345	     -0.73523314	     31.70901028	     31.70901028	     16.24883409	    -16.51698848	      8.83302574	    -10.03747455	      5.18886917	      4.28970112	     25.84547536	    -14.70665400	    -18.58242478	     29.21491477	     46.12097204	      0.00000000	      0.00000000	     10.67299844	    -16.02031139	     11.44117479	     46.00835507	     46.29227797	      0.00000000	      0.00000000
     20.82928571	     -7.16046371	     -4.19032891	     -0.52806929	      1.01755325	      0.91490546	      0.43279854	     16.52563128	     -6.67016007	     -5.80627388	     56.02742442	     56.02742442	      0.55960218	    -17.31574186	     -7.11037044	     24.72576586	     -2.88416132	     -0.65670977	     32.12384046	     32.12384046	     16.87894922	    -17.12607413	      9.30167193	    -10.09215200	      5.37350376	      3.87365800	     22.78514646	    -14.27392631	    -18.73449212	     28.40617406	     46.17471722	      0.00000000	      0.00000000	     12.31334314	    -16.43549922	     11.12526363	     47.40394482	     46.35851953	      0.00000000	      0.00000000
     20.84857143	     -6.97826481	     -4.24550560	     -0.99139017	      1.01721430	      0.91456391	      0.43079282	     18.76539849	     -6.58592315	     -5.24927684	     59.41566374	     59.41566374	      1.20025147	    -18.16064223	     -0.54751731	     24.22393578	     -2.86361360	     -0.80412433	     32.47369073	     32.47369073	     17.59799633	    -17.41995879	      9.70897595	    -10.32845150	      5.57199542	      3.62719247	     19.58014187	    -13.88587287	    -18.84909150	     27.91462634	     46.20567425	      0.00000000	      0.00000000	     14.18642775	    -16.82723592	     10.68746352	     48.69983432	     46.44355108	      0.00000000	      0.00000000
     20.86785714	     -6.79496639	     -4.28381634	     -1.47313763	      1.01682232	      0.91428361	      0.42889595	     20.86194917	     -6.47994710	     -4.77346932	     62.25436300	     62.25436300	      2.16127662	    -18.70793368	      5.65965050	     23.67033349	     -2.83838633	     -1.00804172	     32.73405881	     32.73405881	     18.30501967	    -17.65530179	     10.11706925	    -10.61143707	      5.76744634	      3.51582201	     16.38205023	    -13.60452883	    -18.95121896	     27.28124578	     46.23891360	      0.00000000	      0.00000000	     16.15843052	    -17.11192289	     10.16212643	     49.97840805	     46.53693482	      0.00000000	      0.00000000
     20.88714286	     -6.68931482	     -4.24359012	     -1.99068428	      1.01625049	      0.91393574	      0.42709382	     22.78520269	     -6.56620857	     -4.53365794	     64.26018015	     64.26018015	      2.28372439	    -19.07537450	      7.22943723	     23.16978782	     -2.75888665	     -1.32063398	     32.89853626	     32.89853626	     18.74556688	    -17.85602179	     10.16605418	    -10.79678247	      5.90435717	      3.43073639	     13.45235578	    -13.36993459	    -18.98753514	     26.08395522	     46.27552311	      0.00000000	      0.00000000	     18.07944349	    -17.33970697	      9.60835276	     51.23232222	     46.62156166	      0.00000000	      0.00000000
     20.90642857	     -6.50243235	     -4.37947454	     -2.54064453	      1.01557519	      0.91399034	      0.42583845	     24.55310287	     -6.17225920	     -4.20300646	     65.75284239	     65.75284239	      4.27200818	    -19.17162229	     13.38469333	     22.55486205	     -2.90119357	     -1.64011974	     33.03596238	     33.03596238	     19.52248631	    -17.94255903	     10.68492256	    -11.15165242	      6.20724984	      3.27058001	     10.60130521	    -12.96069177	    -19.13813532	     25.73555201	     46.30684915	      0.00000000	      0.00000000	     19.88728102	    -17.62216482	      8.58653262	     52.47109710	     46.74990991	      0.00000000	      0.00000000
     20.92571429	     -6.37130764	     -4.49840053	     -3.13287515	      1.01481816	      0.91429386	      0.42485811	     26.00752585	     -5.88077589	     -4.13141107	     66.14254116	     66.14254116	      4.79280064	    -19.27336955	     13.30216396	     21.87754096	     -3.05398301	     -2.01800780	     32.91189778	     32.91189778	     19.88560273	    -18.08037963	     10.66045930	    -11.36277470	      6.53855775	      2.60072993	      8.50797407	    -12.46394572	    -19.15289635	     24.88013909	     46.32712334	      0.00000000	      0.00000000	     21.43598819	    -18.44339937	      8.09703176	     53.10857650	     46.81303724	      0.00000000	      0.00000000
     20.94500000	     -6.42568341	     -4.50547642	     -3.88533407	      1.01368559	      0.91461460	      0.42444176	     27.61411878	     -5.45533523	     -3.83372926	     65.88207773	     65.88207773	      5.80482314	    -19.26348286	     13.69466770	     21.34488496	     -3.20023986	     -2.67225870	     32.65954796	     32.65954796	     20.23444668	    -18.03380704	     10.69847789	    -11.56445984	      6.66385537	      3.33612566	      5.83479605	    -12.40328719	    -19.15541966	     23.64701456	     46.36711203	      0.00000000	      0.00000000	     23.31787646	    -18.17469661	      7.17881955	     54.98144018	     46.93239310	      0.00000000	      0.00000000
     20.96428571	     -6.45982780	     -4.70078680	     -4.64481045	      1.01250918	      0.91545475	      0.42451605	     28.89709034	     -4.69841793	     -3.64579476	     64.67933589	     64.67933589	      6.85225689	    -19.18325470	     13.68476413	     20.67641345	     -3.56132499	     -3.28561723	     32.20730292	     32.20730292	     20.46952160	    -17.97997807	     10.71402539	    -11.78181473	      7.01549376	      3.43945256	      3.71362437	    -12.13841396	    -19.17099901	     22.92531746	     46.39138714	      0.00000000	      0.00000000	     24.77626222	    -18.38509736	      6.03428840	     56.44540173	     47.05620382	      0.00000000	      0.00000000
     20.98357143	     -6.57188323	     -4.86080007	     -5.48742233	      1.01120000	      0.91651805	      0.42507340	     30.02197944	     -3.85630516	     -3.43476076	     62.63031707	     62.63031707	      7.78809509	    -18.99929200	     12.87670704	     20.00237337	     -3.93774663	     -4.01587843	     31.58876017	     31.58876017	     20.58963525	    -17.90122628	     10.62084980	    -11.90320914	      7.29087522	      3.57240090	      1.80020406	    -11.89008424	    -19.16700060	     22.39293528	     46.41130387	      0.00000000	      0.00000000	     26.03978879	    -18.51007520	      4.48123869	     58.17955422	     47.21161620	      0.00000000	      0.00000000
     21.00285714	     -6.80168395	     -5.01727676	     -6.35175164	      1.00981426	      0.91779763	      0.42592426	     30.84429406	     -3.07375806	     -3.42772459	     59.46670589	     59.46670589	      7.51563279	    -18.67639379	      8.19792642	     19.31306729	     -4.34005985	     -4.84851671	     30.69383934	     30.69383934	     20.35432874	    -17.77855613	      9.88952678	    -11.94323686	      7.59326411	      2.92258234	      0.37068315	    -11.54678563	    -18.91883422	     22.56065059	     46.42386863	      0.00000000	      0.00000000	     26.17796164	    -18.67331789	      0.39561888	     60.98413731	     47.55324561	      0.00000000	      0.00000000
     21.02214286	     -7.06757219	     -5.16057368	     -7.29219178	      1.00840103	      0.91927661	      0.42721908	     31.37687574	     -2.24841728	     -3.42728327	     55.44926449	     55.44926449	      6.91124649	    -18.07256698	      2.70082084	     18.55222374	     -4.74264063	     -5.73733776	     29.62599333	     29.62599333	     20.12308907	    -17.64772096	      9.37970393	    -11.93586029	      7.83673120	      2.78434725	     -0.91077896	    -11.39329282	    -18.28245658	     22.07918309	     46.44209259	      0.00000000	      0.00000000	     26.82928684	    -18.95438149	     -1.68296499	     63.20971117	     47.71972836	      0.00000000	      0.00000000
     21.04142857	     -7.36019394	     -5.27480466	     -8.25738578	      1.00700355	      0.92086161	      0.42887832	     31.60902780	     -1.41577401	     -3.44406734	     50.70289444	     50.70289444	      6.30039182	    -16.96110243	     -2.23205786	     17.75130363	     -5.11826324	     -6.66938947	     28.44791253	     28.44791253	     19.84758834	    -17.50864750	      8.94821010	    -11.91560557	      8.02405719	      2.76319453	     -2.25388994	    -11.25434019	    -17.75405652	     22.22564677	     46.43437469	      0.00000000	      0.00000000	     27.46054274	    -19.23556072	     -3.65183374	     65.46644827	     47.87373035	      0.00000000	      0.00000000
